<mxfile host="65bd71144e">
    <diagram id="PRiUJ8S7hWdoWZL7F6-C" name="Page-1">
        <mxGraphModel dx="1026" dy="576" grid="1" gridSize="10" guides="1" tooltips="1" connect="1" arrows="1" fold="1" page="1" pageScale="1" pageWidth="827" pageHeight="1169" math="0" shadow="0">
            <root>
                <mxCell id="0"/>
                <mxCell id="1" parent="0"/>
                <mxCell id="3" value="" style="shape=parallelogram;perimeter=parallelogramPerimeter;whiteSpace=wrap;html=1;fixedSize=1;" parent="1" vertex="1">
                    <mxGeometry x="354" y="110" width="120" height="60" as="geometry"/>
                </mxCell>
                <mxCell id="4" value="Disease" style="shape=table;startSize=30;container=1;collapsible=0;childLayout=tableLayout;fontStyle=1;align=center;points=[[0,0,0,0,0],[0,0.25,0,0,0],[0,0.5,0,0,0],[0,0.75,0,0,0],[0,1,0,0,0],[0.25,0,0,0,0],[0.25,1,0,0,0],[0.5,0,0,0,0],[0.5,1,0,0,0],[0.75,0,0,0,0],[0.75,1,0,0,0],[1,0,0,0,0],[1,0.25,0,0,0],[1,0.5,0,0,0],[1,0.75,0,0,0],[1,1,0,0,0]];" parent="1" vertex="1">
                    <mxGeometry y="210" width="900" height="936" as="geometry"/>
                </mxCell>
                <mxCell id="5" value="" style="shape=tableRow;horizontal=0;startSize=0;swimlaneHead=0;swimlaneBody=0;top=0;left=0;bottom=0;right=0;collapsible=0;dropTarget=0;fillColor=none;points=[[0,0.5],[1,0.5]];portConstraint=eastwest;" parent="4" vertex="1">
                    <mxGeometry y="30" width="900" height="60" as="geometry"/>
                </mxCell>
                <mxCell id="25" style="shape=partialRectangle;html=1;whiteSpace=wrap;connectable=0;fillColor=none;top=0;left=0;bottom=0;right=0;overflow=hidden;" parent="5" vertex="1">
                    <mxGeometry width="90" height="60" as="geometry">
                        <mxRectangle width="90" height="60" as="alternateBounds"/>
                    </mxGeometry>
                </mxCell>
                <mxCell id="6" value="TB" style="shape=partialRectangle;html=1;whiteSpace=wrap;connectable=0;fillColor=none;top=0;left=0;bottom=0;right=0;overflow=hidden;" parent="5" vertex="1">
                    <mxGeometry x="90" width="90" height="60" as="geometry">
                        <mxRectangle width="90" height="60" as="alternateBounds"/>
                    </mxGeometry>
                </mxCell>
                <mxCell id="22" value="Diabetes" style="shape=partialRectangle;html=1;whiteSpace=wrap;connectable=0;fillColor=none;top=0;left=0;bottom=0;right=0;overflow=hidden;" parent="5" vertex="1">
                    <mxGeometry x="180" width="90" height="60" as="geometry">
                        <mxRectangle width="90" height="60" as="alternateBounds"/>
                    </mxGeometry>
                </mxCell>
                <mxCell id="7" value="Diarhea" style="shape=partialRectangle;html=1;whiteSpace=wrap;connectable=0;fillColor=none;top=0;left=0;bottom=0;right=0;overflow=hidden;" parent="5" vertex="1">
                    <mxGeometry x="270" width="90" height="60" as="geometry">
                        <mxRectangle width="90" height="60" as="alternateBounds"/>
                    </mxGeometry>
                </mxCell>
                <mxCell id="19" value="Cardio Disease" style="shape=partialRectangle;html=1;whiteSpace=wrap;connectable=0;fillColor=none;top=0;left=0;bottom=0;right=0;overflow=hidden;" parent="5" vertex="1">
                    <mxGeometry x="360" width="90" height="60" as="geometry">
                        <mxRectangle width="90" height="60" as="alternateBounds"/>
                    </mxGeometry>
                </mxCell>
                <mxCell id="8" value="Elephantias" style="shape=partialRectangle;html=1;whiteSpace=wrap;connectable=0;fillColor=none;top=0;left=0;bottom=0;right=0;overflow=hidden;" parent="5" vertex="1">
                    <mxGeometry x="450" width="90" height="60" as="geometry">
                        <mxRectangle width="90" height="60" as="alternateBounds"/>
                    </mxGeometry>
                </mxCell>
                <mxCell id="63" value="Covid-19" style="shape=partialRectangle;html=1;whiteSpace=wrap;connectable=0;fillColor=none;top=0;left=0;bottom=0;right=0;overflow=hidden;" parent="5" vertex="1">
                    <mxGeometry x="540" width="90" height="60" as="geometry">
                        <mxRectangle width="90" height="60" as="alternateBounds"/>
                    </mxGeometry>
                </mxCell>
                <mxCell id="71" value="Stroke" style="shape=partialRectangle;html=1;whiteSpace=wrap;connectable=0;fillColor=none;top=0;left=0;bottom=0;right=0;overflow=hidden;" parent="5" vertex="1">
                    <mxGeometry x="630" width="90" height="60" as="geometry">
                        <mxRectangle width="90" height="60" as="alternateBounds"/>
                    </mxGeometry>
                </mxCell>
                <mxCell id="79" value="Alzheimer's" style="shape=partialRectangle;html=1;whiteSpace=wrap;connectable=0;fillColor=none;top=0;left=0;bottom=0;right=0;overflow=hidden;" parent="5" vertex="1">
                    <mxGeometry x="720" width="90" height="60" as="geometry">
                        <mxRectangle width="90" height="60" as="alternateBounds"/>
                    </mxGeometry>
                </mxCell>
                <mxCell id="87" value="Cancer" style="shape=partialRectangle;html=1;whiteSpace=wrap;connectable=0;fillColor=none;top=0;left=0;bottom=0;right=0;overflow=hidden;" parent="5" vertex="1">
                    <mxGeometry x="810" width="90" height="60" as="geometry">
                        <mxRectangle width="90" height="60" as="alternateBounds"/>
                    </mxGeometry>
                </mxCell>
                <mxCell id="9" value="" style="shape=tableRow;horizontal=0;startSize=0;swimlaneHead=0;swimlaneBody=0;top=0;left=0;bottom=0;right=0;collapsible=0;dropTarget=0;fillColor=none;points=[[0,0.5],[1,0.5]];portConstraint=eastwest;" parent="4" vertex="1">
                    <mxGeometry y="90" width="900" height="76" as="geometry"/>
                </mxCell>
                <mxCell id="26" value="C.G." style="shape=partialRectangle;html=1;whiteSpace=wrap;connectable=0;fillColor=none;top=0;left=0;bottom=0;right=0;overflow=hidden;" parent="9" vertex="1">
                    <mxGeometry width="90" height="76" as="geometry">
                        <mxRectangle width="90" height="76" as="alternateBounds"/>
                    </mxGeometry>
                </mxCell>
                <mxCell id="10" value="55" style="shape=partialRectangle;html=1;whiteSpace=wrap;connectable=0;fillColor=none;top=0;left=0;bottom=0;right=0;overflow=hidden;" parent="9" vertex="1">
                    <mxGeometry x="90" width="90" height="76" as="geometry">
                        <mxRectangle width="90" height="76" as="alternateBounds"/>
                    </mxGeometry>
                </mxCell>
                <mxCell id="23" value="52" style="shape=partialRectangle;html=1;whiteSpace=wrap;connectable=0;fillColor=none;top=0;left=0;bottom=0;right=0;overflow=hidden;" parent="9" vertex="1">
                    <mxGeometry x="180" width="90" height="76" as="geometry">
                        <mxRectangle width="90" height="76" as="alternateBounds"/>
                    </mxGeometry>
                </mxCell>
                <mxCell id="11" value="67" style="shape=partialRectangle;html=1;whiteSpace=wrap;connectable=0;fillColor=none;top=0;left=0;bottom=0;right=0;overflow=hidden;" parent="9" vertex="1">
                    <mxGeometry x="270" width="90" height="76" as="geometry">
                        <mxRectangle width="90" height="76" as="alternateBounds"/>
                    </mxGeometry>
                </mxCell>
                <mxCell id="20" value="44" style="shape=partialRectangle;html=1;whiteSpace=wrap;connectable=0;fillColor=none;top=0;left=0;bottom=0;right=0;overflow=hidden;" parent="9" vertex="1">
                    <mxGeometry x="360" width="90" height="76" as="geometry">
                        <mxRectangle width="90" height="76" as="alternateBounds"/>
                    </mxGeometry>
                </mxCell>
                <mxCell id="12" value="29" style="shape=partialRectangle;html=1;whiteSpace=wrap;connectable=0;fillColor=none;top=0;left=0;bottom=0;right=0;overflow=hidden;" parent="9" vertex="1">
                    <mxGeometry x="450" width="90" height="76" as="geometry">
                        <mxRectangle width="90" height="76" as="alternateBounds"/>
                    </mxGeometry>
                </mxCell>
                <mxCell id="64" value="3" style="shape=partialRectangle;html=1;whiteSpace=wrap;connectable=0;fillColor=none;top=0;left=0;bottom=0;right=0;overflow=hidden;" parent="9" vertex="1">
                    <mxGeometry x="540" width="90" height="76" as="geometry">
                        <mxRectangle width="90" height="76" as="alternateBounds"/>
                    </mxGeometry>
                </mxCell>
                <mxCell id="72" value="9" style="shape=partialRectangle;html=1;whiteSpace=wrap;connectable=0;fillColor=none;top=0;left=0;bottom=0;right=0;overflow=hidden;" parent="9" vertex="1">
                    <mxGeometry x="630" width="90" height="76" as="geometry">
                        <mxRectangle width="90" height="76" as="alternateBounds"/>
                    </mxGeometry>
                </mxCell>
                <mxCell id="80" value="5" style="shape=partialRectangle;html=1;whiteSpace=wrap;connectable=0;fillColor=none;top=0;left=0;bottom=0;right=0;overflow=hidden;" parent="9" vertex="1">
                    <mxGeometry x="720" width="90" height="76" as="geometry">
                        <mxRectangle width="90" height="76" as="alternateBounds"/>
                    </mxGeometry>
                </mxCell>
                <mxCell id="88" value="67" style="shape=partialRectangle;html=1;whiteSpace=wrap;connectable=0;fillColor=none;top=0;left=0;bottom=0;right=0;overflow=hidden;" parent="9" vertex="1">
                    <mxGeometry x="810" width="90" height="76" as="geometry">
                        <mxRectangle width="90" height="76" as="alternateBounds"/>
                    </mxGeometry>
                </mxCell>
                <mxCell id="13" value="" style="shape=tableRow;horizontal=0;startSize=0;swimlaneHead=0;swimlaneBody=0;top=0;left=0;bottom=0;right=0;collapsible=0;dropTarget=0;fillColor=none;points=[[0,0.5],[1,0.5]];portConstraint=eastwest;" parent="4" vertex="1">
                    <mxGeometry y="166" width="900" height="77" as="geometry"/>
                </mxCell>
                <mxCell id="27" value="J&amp;amp;K" style="shape=partialRectangle;html=1;whiteSpace=wrap;connectable=0;fillColor=none;top=0;left=0;bottom=0;right=0;overflow=hidden;" parent="13" vertex="1">
                    <mxGeometry width="90" height="77" as="geometry">
                        <mxRectangle width="90" height="77" as="alternateBounds"/>
                    </mxGeometry>
                </mxCell>
                <mxCell id="14" value="34" style="shape=partialRectangle;html=1;whiteSpace=wrap;connectable=0;fillColor=none;top=0;left=0;bottom=0;right=0;overflow=hidden;" parent="13" vertex="1">
                    <mxGeometry x="90" width="90" height="77" as="geometry">
                        <mxRectangle width="90" height="77" as="alternateBounds"/>
                    </mxGeometry>
                </mxCell>
                <mxCell id="24" value="71" style="shape=partialRectangle;html=1;whiteSpace=wrap;connectable=0;fillColor=none;top=0;left=0;bottom=0;right=0;overflow=hidden;" parent="13" vertex="1">
                    <mxGeometry x="180" width="90" height="77" as="geometry">
                        <mxRectangle width="90" height="77" as="alternateBounds"/>
                    </mxGeometry>
                </mxCell>
                <mxCell id="15" value="29" style="shape=partialRectangle;html=1;whiteSpace=wrap;connectable=0;fillColor=none;top=0;left=0;bottom=0;right=0;overflow=hidden;" parent="13" vertex="1">
                    <mxGeometry x="270" width="90" height="77" as="geometry">
                        <mxRectangle width="90" height="77" as="alternateBounds"/>
                    </mxGeometry>
                </mxCell>
                <mxCell id="21" value="37" style="shape=partialRectangle;html=1;whiteSpace=wrap;connectable=0;fillColor=none;top=0;left=0;bottom=0;right=0;overflow=hidden;" parent="13" vertex="1">
                    <mxGeometry x="360" width="90" height="77" as="geometry">
                        <mxRectangle width="90" height="77" as="alternateBounds"/>
                    </mxGeometry>
                </mxCell>
                <mxCell id="16" value="43" style="shape=partialRectangle;html=1;whiteSpace=wrap;connectable=0;fillColor=none;top=0;left=0;bottom=0;right=0;overflow=hidden;" parent="13" vertex="1">
                    <mxGeometry x="450" width="90" height="77" as="geometry">
                        <mxRectangle width="90" height="77" as="alternateBounds"/>
                    </mxGeometry>
                </mxCell>
                <mxCell id="65" value="2" style="shape=partialRectangle;html=1;whiteSpace=wrap;connectable=0;fillColor=none;top=0;left=0;bottom=0;right=0;overflow=hidden;" parent="13" vertex="1">
                    <mxGeometry x="540" width="90" height="77" as="geometry">
                        <mxRectangle width="90" height="77" as="alternateBounds"/>
                    </mxGeometry>
                </mxCell>
                <mxCell id="73" value="2" style="shape=partialRectangle;html=1;whiteSpace=wrap;connectable=0;fillColor=none;top=0;left=0;bottom=0;right=0;overflow=hidden;" parent="13" vertex="1">
                    <mxGeometry x="630" width="90" height="77" as="geometry">
                        <mxRectangle width="90" height="77" as="alternateBounds"/>
                    </mxGeometry>
                </mxCell>
                <mxCell id="81" value="11" style="shape=partialRectangle;html=1;whiteSpace=wrap;connectable=0;fillColor=none;top=0;left=0;bottom=0;right=0;overflow=hidden;" parent="13" vertex="1">
                    <mxGeometry x="720" width="90" height="77" as="geometry">
                        <mxRectangle width="90" height="77" as="alternateBounds"/>
                    </mxGeometry>
                </mxCell>
                <mxCell id="89" value="31" style="shape=partialRectangle;html=1;whiteSpace=wrap;connectable=0;fillColor=none;top=0;left=0;bottom=0;right=0;overflow=hidden;" parent="13" vertex="1">
                    <mxGeometry x="810" width="90" height="77" as="geometry">
                        <mxRectangle width="90" height="77" as="alternateBounds"/>
                    </mxGeometry>
                </mxCell>
                <mxCell id="28" style="shape=tableRow;horizontal=0;startSize=0;swimlaneHead=0;swimlaneBody=0;top=0;left=0;bottom=0;right=0;collapsible=0;dropTarget=0;fillColor=none;points=[[0,0.5],[1,0.5]];portConstraint=eastwest;" parent="4" vertex="1">
                    <mxGeometry y="243" width="900" height="77" as="geometry"/>
                </mxCell>
                <mxCell id="29" value="Assam" style="shape=partialRectangle;html=1;whiteSpace=wrap;connectable=0;fillColor=none;top=0;left=0;bottom=0;right=0;overflow=hidden;" parent="28" vertex="1">
                    <mxGeometry width="90" height="77" as="geometry">
                        <mxRectangle width="90" height="77" as="alternateBounds"/>
                    </mxGeometry>
                </mxCell>
                <mxCell id="30" value="105" style="shape=partialRectangle;html=1;whiteSpace=wrap;connectable=0;fillColor=none;top=0;left=0;bottom=0;right=0;overflow=hidden;" parent="28" vertex="1">
                    <mxGeometry x="90" width="90" height="77" as="geometry">
                        <mxRectangle width="90" height="77" as="alternateBounds"/>
                    </mxGeometry>
                </mxCell>
                <mxCell id="31" value="22" style="shape=partialRectangle;html=1;whiteSpace=wrap;connectable=0;fillColor=none;top=0;left=0;bottom=0;right=0;overflow=hidden;" parent="28" vertex="1">
                    <mxGeometry x="180" width="90" height="77" as="geometry">
                        <mxRectangle width="90" height="77" as="alternateBounds"/>
                    </mxGeometry>
                </mxCell>
                <mxCell id="32" value="90" style="shape=partialRectangle;html=1;whiteSpace=wrap;connectable=0;fillColor=none;top=0;left=0;bottom=0;right=0;overflow=hidden;" parent="28" vertex="1">
                    <mxGeometry x="270" width="90" height="77" as="geometry">
                        <mxRectangle width="90" height="77" as="alternateBounds"/>
                    </mxGeometry>
                </mxCell>
                <mxCell id="33" value="76" style="shape=partialRectangle;html=1;whiteSpace=wrap;connectable=0;fillColor=none;top=0;left=0;bottom=0;right=0;overflow=hidden;" parent="28" vertex="1">
                    <mxGeometry x="360" width="90" height="77" as="geometry">
                        <mxRectangle width="90" height="77" as="alternateBounds"/>
                    </mxGeometry>
                </mxCell>
                <mxCell id="34" value="82" style="shape=partialRectangle;html=1;whiteSpace=wrap;connectable=0;fillColor=none;top=0;left=0;bottom=0;right=0;overflow=hidden;" parent="28" vertex="1">
                    <mxGeometry x="450" width="90" height="77" as="geometry">
                        <mxRectangle width="90" height="77" as="alternateBounds"/>
                    </mxGeometry>
                </mxCell>
                <mxCell id="66" value="3" style="shape=partialRectangle;html=1;whiteSpace=wrap;connectable=0;fillColor=none;top=0;left=0;bottom=0;right=0;overflow=hidden;" parent="28" vertex="1">
                    <mxGeometry x="540" width="90" height="77" as="geometry">
                        <mxRectangle width="90" height="77" as="alternateBounds"/>
                    </mxGeometry>
                </mxCell>
                <mxCell id="74" value="4" style="shape=partialRectangle;html=1;whiteSpace=wrap;connectable=0;fillColor=none;top=0;left=0;bottom=0;right=0;overflow=hidden;" parent="28" vertex="1">
                    <mxGeometry x="630" width="90" height="77" as="geometry">
                        <mxRectangle width="90" height="77" as="alternateBounds"/>
                    </mxGeometry>
                </mxCell>
                <mxCell id="82" value="22" style="shape=partialRectangle;html=1;whiteSpace=wrap;connectable=0;fillColor=none;top=0;left=0;bottom=0;right=0;overflow=hidden;" parent="28" vertex="1">
                    <mxGeometry x="720" width="90" height="77" as="geometry">
                        <mxRectangle width="90" height="77" as="alternateBounds"/>
                    </mxGeometry>
                </mxCell>
                <mxCell id="90" value="34" style="shape=partialRectangle;html=1;whiteSpace=wrap;connectable=0;fillColor=none;top=0;left=0;bottom=0;right=0;overflow=hidden;" parent="28" vertex="1">
                    <mxGeometry x="810" width="90" height="77" as="geometry">
                        <mxRectangle width="90" height="77" as="alternateBounds"/>
                    </mxGeometry>
                </mxCell>
                <mxCell id="35" style="shape=tableRow;horizontal=0;startSize=0;swimlaneHead=0;swimlaneBody=0;top=0;left=0;bottom=0;right=0;collapsible=0;dropTarget=0;fillColor=none;points=[[0,0.5],[1,0.5]];portConstraint=eastwest;" parent="4" vertex="1">
                    <mxGeometry y="320" width="900" height="77" as="geometry"/>
                </mxCell>
                <mxCell id="36" value="Goa" style="shape=partialRectangle;html=1;whiteSpace=wrap;connectable=0;fillColor=none;top=0;left=0;bottom=0;right=0;overflow=hidden;" parent="35" vertex="1">
                    <mxGeometry width="90" height="77" as="geometry">
                        <mxRectangle width="90" height="77" as="alternateBounds"/>
                    </mxGeometry>
                </mxCell>
                <mxCell id="37" value="67" style="shape=partialRectangle;html=1;whiteSpace=wrap;connectable=0;fillColor=none;top=0;left=0;bottom=0;right=0;overflow=hidden;" parent="35" vertex="1">
                    <mxGeometry x="90" width="90" height="77" as="geometry">
                        <mxRectangle width="90" height="77" as="alternateBounds"/>
                    </mxGeometry>
                </mxCell>
                <mxCell id="38" value="39" style="shape=partialRectangle;html=1;whiteSpace=wrap;connectable=0;fillColor=none;top=0;left=0;bottom=0;right=0;overflow=hidden;" parent="35" vertex="1">
                    <mxGeometry x="180" width="90" height="77" as="geometry">
                        <mxRectangle width="90" height="77" as="alternateBounds"/>
                    </mxGeometry>
                </mxCell>
                <mxCell id="39" value="24" style="shape=partialRectangle;html=1;whiteSpace=wrap;connectable=0;fillColor=none;top=0;left=0;bottom=0;right=0;overflow=hidden;" parent="35" vertex="1">
                    <mxGeometry x="270" width="90" height="77" as="geometry">
                        <mxRectangle width="90" height="77" as="alternateBounds"/>
                    </mxGeometry>
                </mxCell>
                <mxCell id="40" value="68" style="shape=partialRectangle;html=1;whiteSpace=wrap;connectable=0;fillColor=none;top=0;left=0;bottom=0;right=0;overflow=hidden;" parent="35" vertex="1">
                    <mxGeometry x="360" width="90" height="77" as="geometry">
                        <mxRectangle width="90" height="77" as="alternateBounds"/>
                    </mxGeometry>
                </mxCell>
                <mxCell id="41" value="21" style="shape=partialRectangle;html=1;whiteSpace=wrap;connectable=0;fillColor=none;top=0;left=0;bottom=0;right=0;overflow=hidden;" parent="35" vertex="1">
                    <mxGeometry x="450" width="90" height="77" as="geometry">
                        <mxRectangle width="90" height="77" as="alternateBounds"/>
                    </mxGeometry>
                </mxCell>
                <mxCell id="67" value="2" style="shape=partialRectangle;html=1;whiteSpace=wrap;connectable=0;fillColor=none;top=0;left=0;bottom=0;right=0;overflow=hidden;" parent="35" vertex="1">
                    <mxGeometry x="540" width="90" height="77" as="geometry">
                        <mxRectangle width="90" height="77" as="alternateBounds"/>
                    </mxGeometry>
                </mxCell>
                <mxCell id="75" value="14" style="shape=partialRectangle;html=1;whiteSpace=wrap;connectable=0;fillColor=none;top=0;left=0;bottom=0;right=0;overflow=hidden;" parent="35" vertex="1">
                    <mxGeometry x="630" width="90" height="77" as="geometry">
                        <mxRectangle width="90" height="77" as="alternateBounds"/>
                    </mxGeometry>
                </mxCell>
                <mxCell id="83" value="17" style="shape=partialRectangle;html=1;whiteSpace=wrap;connectable=0;fillColor=none;top=0;left=0;bottom=0;right=0;overflow=hidden;" parent="35" vertex="1">
                    <mxGeometry x="720" width="90" height="77" as="geometry">
                        <mxRectangle width="90" height="77" as="alternateBounds"/>
                    </mxGeometry>
                </mxCell>
                <mxCell id="91" value="40" style="shape=partialRectangle;html=1;whiteSpace=wrap;connectable=0;fillColor=none;top=0;left=0;bottom=0;right=0;overflow=hidden;" parent="35" vertex="1">
                    <mxGeometry x="810" width="90" height="77" as="geometry">
                        <mxRectangle width="90" height="77" as="alternateBounds"/>
                    </mxGeometry>
                </mxCell>
                <mxCell id="117" style="shape=tableRow;horizontal=0;startSize=0;swimlaneHead=0;swimlaneBody=0;top=0;left=0;bottom=0;right=0;collapsible=0;dropTarget=0;fillColor=none;points=[[0,0.5],[1,0.5]];portConstraint=eastwest;" vertex="1" parent="4">
                    <mxGeometry y="397" width="900" height="77" as="geometry"/>
                </mxCell>
                <mxCell id="118" value="Maharastra" style="shape=partialRectangle;html=1;whiteSpace=wrap;connectable=0;fillColor=none;top=0;left=0;bottom=0;right=0;overflow=hidden;" vertex="1" parent="117">
                    <mxGeometry width="90" height="77" as="geometry">
                        <mxRectangle width="90" height="77" as="alternateBounds"/>
                    </mxGeometry>
                </mxCell>
                <mxCell id="119" value="65" style="shape=partialRectangle;html=1;whiteSpace=wrap;connectable=0;fillColor=none;top=0;left=0;bottom=0;right=0;overflow=hidden;" vertex="1" parent="117">
                    <mxGeometry x="90" width="90" height="77" as="geometry">
                        <mxRectangle width="90" height="77" as="alternateBounds"/>
                    </mxGeometry>
                </mxCell>
                <mxCell id="120" value="77" style="shape=partialRectangle;html=1;whiteSpace=wrap;connectable=0;fillColor=none;top=0;left=0;bottom=0;right=0;overflow=hidden;" vertex="1" parent="117">
                    <mxGeometry x="180" width="90" height="77" as="geometry">
                        <mxRectangle width="90" height="77" as="alternateBounds"/>
                    </mxGeometry>
                </mxCell>
                <mxCell id="121" value="89" style="shape=partialRectangle;html=1;whiteSpace=wrap;connectable=0;fillColor=none;top=0;left=0;bottom=0;right=0;overflow=hidden;" vertex="1" parent="117">
                    <mxGeometry x="270" width="90" height="77" as="geometry">
                        <mxRectangle width="90" height="77" as="alternateBounds"/>
                    </mxGeometry>
                </mxCell>
                <mxCell id="122" value="23" style="shape=partialRectangle;html=1;whiteSpace=wrap;connectable=0;fillColor=none;top=0;left=0;bottom=0;right=0;overflow=hidden;" vertex="1" parent="117">
                    <mxGeometry x="360" width="90" height="77" as="geometry">
                        <mxRectangle width="90" height="77" as="alternateBounds"/>
                    </mxGeometry>
                </mxCell>
                <mxCell id="123" value="66" style="shape=partialRectangle;html=1;whiteSpace=wrap;connectable=0;fillColor=none;top=0;left=0;bottom=0;right=0;overflow=hidden;" vertex="1" parent="117">
                    <mxGeometry x="450" width="90" height="77" as="geometry">
                        <mxRectangle width="90" height="77" as="alternateBounds"/>
                    </mxGeometry>
                </mxCell>
                <mxCell id="124" value="3" style="shape=partialRectangle;html=1;whiteSpace=wrap;connectable=0;fillColor=none;top=0;left=0;bottom=0;right=0;overflow=hidden;" vertex="1" parent="117">
                    <mxGeometry x="540" width="90" height="77" as="geometry">
                        <mxRectangle width="90" height="77" as="alternateBounds"/>
                    </mxGeometry>
                </mxCell>
                <mxCell id="125" value="7" style="shape=partialRectangle;html=1;whiteSpace=wrap;connectable=0;fillColor=none;top=0;left=0;bottom=0;right=0;overflow=hidden;" vertex="1" parent="117">
                    <mxGeometry x="630" width="90" height="77" as="geometry">
                        <mxRectangle width="90" height="77" as="alternateBounds"/>
                    </mxGeometry>
                </mxCell>
                <mxCell id="126" value="10" style="shape=partialRectangle;html=1;whiteSpace=wrap;connectable=0;fillColor=none;top=0;left=0;bottom=0;right=0;overflow=hidden;" vertex="1" parent="117">
                    <mxGeometry x="720" width="90" height="77" as="geometry">
                        <mxRectangle width="90" height="77" as="alternateBounds"/>
                    </mxGeometry>
                </mxCell>
                <mxCell id="127" value="45" style="shape=partialRectangle;html=1;whiteSpace=wrap;connectable=0;fillColor=none;top=0;left=0;bottom=0;right=0;overflow=hidden;" vertex="1" parent="117">
                    <mxGeometry x="810" width="90" height="77" as="geometry">
                        <mxRectangle width="90" height="77" as="alternateBounds"/>
                    </mxGeometry>
                </mxCell>
                <mxCell id="95" style="shape=tableRow;horizontal=0;startSize=0;swimlaneHead=0;swimlaneBody=0;top=0;left=0;bottom=0;right=0;collapsible=0;dropTarget=0;fillColor=none;points=[[0,0.5],[1,0.5]];portConstraint=eastwest;" parent="4" vertex="1">
                    <mxGeometry y="474" width="900" height="77" as="geometry"/>
                </mxCell>
                <mxCell id="96" value="Maharastra" style="shape=partialRectangle;html=1;whiteSpace=wrap;connectable=0;fillColor=none;top=0;left=0;bottom=0;right=0;overflow=hidden;" parent="95" vertex="1">
                    <mxGeometry width="90" height="77" as="geometry">
                        <mxRectangle width="90" height="77" as="alternateBounds"/>
                    </mxGeometry>
                </mxCell>
                <mxCell id="97" value="65" style="shape=partialRectangle;html=1;whiteSpace=wrap;connectable=0;fillColor=none;top=0;left=0;bottom=0;right=0;overflow=hidden;" parent="95" vertex="1">
                    <mxGeometry x="90" width="90" height="77" as="geometry">
                        <mxRectangle width="90" height="77" as="alternateBounds"/>
                    </mxGeometry>
                </mxCell>
                <mxCell id="98" value="77" style="shape=partialRectangle;html=1;whiteSpace=wrap;connectable=0;fillColor=none;top=0;left=0;bottom=0;right=0;overflow=hidden;" parent="95" vertex="1">
                    <mxGeometry x="180" width="90" height="77" as="geometry">
                        <mxRectangle width="90" height="77" as="alternateBounds"/>
                    </mxGeometry>
                </mxCell>
                <mxCell id="99" value="89" style="shape=partialRectangle;html=1;whiteSpace=wrap;connectable=0;fillColor=none;top=0;left=0;bottom=0;right=0;overflow=hidden;" parent="95" vertex="1">
                    <mxGeometry x="270" width="90" height="77" as="geometry">
                        <mxRectangle width="90" height="77" as="alternateBounds"/>
                    </mxGeometry>
                </mxCell>
                <mxCell id="100" value="23" style="shape=partialRectangle;html=1;whiteSpace=wrap;connectable=0;fillColor=none;top=0;left=0;bottom=0;right=0;overflow=hidden;" parent="95" vertex="1">
                    <mxGeometry x="360" width="90" height="77" as="geometry">
                        <mxRectangle width="90" height="77" as="alternateBounds"/>
                    </mxGeometry>
                </mxCell>
                <mxCell id="101" value="66" style="shape=partialRectangle;html=1;whiteSpace=wrap;connectable=0;fillColor=none;top=0;left=0;bottom=0;right=0;overflow=hidden;" parent="95" vertex="1">
                    <mxGeometry x="450" width="90" height="77" as="geometry">
                        <mxRectangle width="90" height="77" as="alternateBounds"/>
                    </mxGeometry>
                </mxCell>
                <mxCell id="102" value="3" style="shape=partialRectangle;html=1;whiteSpace=wrap;connectable=0;fillColor=none;top=0;left=0;bottom=0;right=0;overflow=hidden;" parent="95" vertex="1">
                    <mxGeometry x="540" width="90" height="77" as="geometry">
                        <mxRectangle width="90" height="77" as="alternateBounds"/>
                    </mxGeometry>
                </mxCell>
                <mxCell id="103" value="7" style="shape=partialRectangle;html=1;whiteSpace=wrap;connectable=0;fillColor=none;top=0;left=0;bottom=0;right=0;overflow=hidden;" parent="95" vertex="1">
                    <mxGeometry x="630" width="90" height="77" as="geometry">
                        <mxRectangle width="90" height="77" as="alternateBounds"/>
                    </mxGeometry>
                </mxCell>
                <mxCell id="104" value="10" style="shape=partialRectangle;html=1;whiteSpace=wrap;connectable=0;fillColor=none;top=0;left=0;bottom=0;right=0;overflow=hidden;" parent="95" vertex="1">
                    <mxGeometry x="720" width="90" height="77" as="geometry">
                        <mxRectangle width="90" height="77" as="alternateBounds"/>
                    </mxGeometry>
                </mxCell>
                <mxCell id="105" value="45" style="shape=partialRectangle;html=1;whiteSpace=wrap;connectable=0;fillColor=none;top=0;left=0;bottom=0;right=0;overflow=hidden;" parent="95" vertex="1">
                    <mxGeometry x="810" width="90" height="77" as="geometry">
                        <mxRectangle width="90" height="77" as="alternateBounds"/>
                    </mxGeometry>
                </mxCell>
                <mxCell id="128" style="shape=tableRow;horizontal=0;startSize=0;swimlaneHead=0;swimlaneBody=0;top=0;left=0;bottom=0;right=0;collapsible=0;dropTarget=0;fillColor=none;points=[[0,0.5],[1,0.5]];portConstraint=eastwest;" vertex="1" parent="4">
                    <mxGeometry y="551" width="900" height="77" as="geometry"/>
                </mxCell>
                <mxCell id="129" value="" style="shape=partialRectangle;html=1;whiteSpace=wrap;connectable=0;fillColor=none;top=0;left=0;bottom=0;right=0;overflow=hidden;" vertex="1" parent="128">
                    <mxGeometry width="90" height="77" as="geometry">
                        <mxRectangle width="90" height="77" as="alternateBounds"/>
                    </mxGeometry>
                </mxCell>
                <mxCell id="130" value="65" style="shape=partialRectangle;html=1;whiteSpace=wrap;connectable=0;fillColor=none;top=0;left=0;bottom=0;right=0;overflow=hidden;" vertex="1" parent="128">
                    <mxGeometry x="90" width="90" height="77" as="geometry">
                        <mxRectangle width="90" height="77" as="alternateBounds"/>
                    </mxGeometry>
                </mxCell>
                <mxCell id="131" value="77" style="shape=partialRectangle;html=1;whiteSpace=wrap;connectable=0;fillColor=none;top=0;left=0;bottom=0;right=0;overflow=hidden;" vertex="1" parent="128">
                    <mxGeometry x="180" width="90" height="77" as="geometry">
                        <mxRectangle width="90" height="77" as="alternateBounds"/>
                    </mxGeometry>
                </mxCell>
                <mxCell id="132" value="89" style="shape=partialRectangle;html=1;whiteSpace=wrap;connectable=0;fillColor=none;top=0;left=0;bottom=0;right=0;overflow=hidden;" vertex="1" parent="128">
                    <mxGeometry x="270" width="90" height="77" as="geometry">
                        <mxRectangle width="90" height="77" as="alternateBounds"/>
                    </mxGeometry>
                </mxCell>
                <mxCell id="133" value="23" style="shape=partialRectangle;html=1;whiteSpace=wrap;connectable=0;fillColor=none;top=0;left=0;bottom=0;right=0;overflow=hidden;" vertex="1" parent="128">
                    <mxGeometry x="360" width="90" height="77" as="geometry">
                        <mxRectangle width="90" height="77" as="alternateBounds"/>
                    </mxGeometry>
                </mxCell>
                <mxCell id="134" value="66" style="shape=partialRectangle;html=1;whiteSpace=wrap;connectable=0;fillColor=none;top=0;left=0;bottom=0;right=0;overflow=hidden;" vertex="1" parent="128">
                    <mxGeometry x="450" width="90" height="77" as="geometry">
                        <mxRectangle width="90" height="77" as="alternateBounds"/>
                    </mxGeometry>
                </mxCell>
                <mxCell id="135" value="3" style="shape=partialRectangle;html=1;whiteSpace=wrap;connectable=0;fillColor=none;top=0;left=0;bottom=0;right=0;overflow=hidden;" vertex="1" parent="128">
                    <mxGeometry x="540" width="90" height="77" as="geometry">
                        <mxRectangle width="90" height="77" as="alternateBounds"/>
                    </mxGeometry>
                </mxCell>
                <mxCell id="136" value="7" style="shape=partialRectangle;html=1;whiteSpace=wrap;connectable=0;fillColor=none;top=0;left=0;bottom=0;right=0;overflow=hidden;" vertex="1" parent="128">
                    <mxGeometry x="630" width="90" height="77" as="geometry">
                        <mxRectangle width="90" height="77" as="alternateBounds"/>
                    </mxGeometry>
                </mxCell>
                <mxCell id="137" value="10" style="shape=partialRectangle;html=1;whiteSpace=wrap;connectable=0;fillColor=none;top=0;left=0;bottom=0;right=0;overflow=hidden;" vertex="1" parent="128">
                    <mxGeometry x="720" width="90" height="77" as="geometry">
                        <mxRectangle width="90" height="77" as="alternateBounds"/>
                    </mxGeometry>
                </mxCell>
                <mxCell id="138" value="45" style="shape=partialRectangle;html=1;whiteSpace=wrap;connectable=0;fillColor=none;top=0;left=0;bottom=0;right=0;overflow=hidden;" vertex="1" parent="128">
                    <mxGeometry x="810" width="90" height="77" as="geometry">
                        <mxRectangle width="90" height="77" as="alternateBounds"/>
                    </mxGeometry>
                </mxCell>
                <mxCell id="106" style="shape=tableRow;horizontal=0;startSize=0;swimlaneHead=0;swimlaneBody=0;top=0;left=0;bottom=0;right=0;collapsible=0;dropTarget=0;fillColor=none;points=[[0,0.5],[1,0.5]];portConstraint=eastwest;" vertex="1" parent="4">
                    <mxGeometry y="628" width="900" height="77" as="geometry"/>
                </mxCell>
                <mxCell id="107" value="" style="shape=partialRectangle;html=1;whiteSpace=wrap;connectable=0;fillColor=none;top=0;left=0;bottom=0;right=0;overflow=hidden;" vertex="1" parent="106">
                    <mxGeometry width="90" height="77" as="geometry">
                        <mxRectangle width="90" height="77" as="alternateBounds"/>
                    </mxGeometry>
                </mxCell>
                <mxCell id="108" value="65" style="shape=partialRectangle;html=1;whiteSpace=wrap;connectable=0;fillColor=none;top=0;left=0;bottom=0;right=0;overflow=hidden;" vertex="1" parent="106">
                    <mxGeometry x="90" width="90" height="77" as="geometry">
                        <mxRectangle width="90" height="77" as="alternateBounds"/>
                    </mxGeometry>
                </mxCell>
                <mxCell id="109" value="77" style="shape=partialRectangle;html=1;whiteSpace=wrap;connectable=0;fillColor=none;top=0;left=0;bottom=0;right=0;overflow=hidden;" vertex="1" parent="106">
                    <mxGeometry x="180" width="90" height="77" as="geometry">
                        <mxRectangle width="90" height="77" as="alternateBounds"/>
                    </mxGeometry>
                </mxCell>
                <mxCell id="110" value="89" style="shape=partialRectangle;html=1;whiteSpace=wrap;connectable=0;fillColor=none;top=0;left=0;bottom=0;right=0;overflow=hidden;" vertex="1" parent="106">
                    <mxGeometry x="270" width="90" height="77" as="geometry">
                        <mxRectangle width="90" height="77" as="alternateBounds"/>
                    </mxGeometry>
                </mxCell>
                <mxCell id="111" value="23" style="shape=partialRectangle;html=1;whiteSpace=wrap;connectable=0;fillColor=none;top=0;left=0;bottom=0;right=0;overflow=hidden;" vertex="1" parent="106">
                    <mxGeometry x="360" width="90" height="77" as="geometry">
                        <mxRectangle width="90" height="77" as="alternateBounds"/>
                    </mxGeometry>
                </mxCell>
                <mxCell id="112" value="66" style="shape=partialRectangle;html=1;whiteSpace=wrap;connectable=0;fillColor=none;top=0;left=0;bottom=0;right=0;overflow=hidden;" vertex="1" parent="106">
                    <mxGeometry x="450" width="90" height="77" as="geometry">
                        <mxRectangle width="90" height="77" as="alternateBounds"/>
                    </mxGeometry>
                </mxCell>
                <mxCell id="113" value="3" style="shape=partialRectangle;html=1;whiteSpace=wrap;connectable=0;fillColor=none;top=0;left=0;bottom=0;right=0;overflow=hidden;" vertex="1" parent="106">
                    <mxGeometry x="540" width="90" height="77" as="geometry">
                        <mxRectangle width="90" height="77" as="alternateBounds"/>
                    </mxGeometry>
                </mxCell>
                <mxCell id="114" value="7" style="shape=partialRectangle;html=1;whiteSpace=wrap;connectable=0;fillColor=none;top=0;left=0;bottom=0;right=0;overflow=hidden;" vertex="1" parent="106">
                    <mxGeometry x="630" width="90" height="77" as="geometry">
                        <mxRectangle width="90" height="77" as="alternateBounds"/>
                    </mxGeometry>
                </mxCell>
                <mxCell id="115" value="10" style="shape=partialRectangle;html=1;whiteSpace=wrap;connectable=0;fillColor=none;top=0;left=0;bottom=0;right=0;overflow=hidden;" vertex="1" parent="106">
                    <mxGeometry x="720" width="90" height="77" as="geometry">
                        <mxRectangle width="90" height="77" as="alternateBounds"/>
                    </mxGeometry>
                </mxCell>
                <mxCell id="116" value="45" style="shape=partialRectangle;html=1;whiteSpace=wrap;connectable=0;fillColor=none;top=0;left=0;bottom=0;right=0;overflow=hidden;" vertex="1" parent="106">
                    <mxGeometry x="810" width="90" height="77" as="geometry">
                        <mxRectangle width="90" height="77" as="alternateBounds"/>
                    </mxGeometry>
                </mxCell>
                <mxCell id="42" style="shape=tableRow;horizontal=0;startSize=0;swimlaneHead=0;swimlaneBody=0;top=0;left=0;bottom=0;right=0;collapsible=0;dropTarget=0;fillColor=none;points=[[0,0.5],[1,0.5]];portConstraint=eastwest;" parent="4" vertex="1">
                    <mxGeometry y="705" width="900" height="77" as="geometry"/>
                </mxCell>
                <mxCell id="43" value="Orrisa" style="shape=partialRectangle;html=1;whiteSpace=wrap;connectable=0;fillColor=none;top=0;left=0;bottom=0;right=0;overflow=hidden;" parent="42" vertex="1">
                    <mxGeometry width="90" height="77" as="geometry">
                        <mxRectangle width="90" height="77" as="alternateBounds"/>
                    </mxGeometry>
                </mxCell>
                <mxCell id="44" value="65" style="shape=partialRectangle;html=1;whiteSpace=wrap;connectable=0;fillColor=none;top=0;left=0;bottom=0;right=0;overflow=hidden;" parent="42" vertex="1">
                    <mxGeometry x="90" width="90" height="77" as="geometry">
                        <mxRectangle width="90" height="77" as="alternateBounds"/>
                    </mxGeometry>
                </mxCell>
                <mxCell id="45" value="77" style="shape=partialRectangle;html=1;whiteSpace=wrap;connectable=0;fillColor=none;top=0;left=0;bottom=0;right=0;overflow=hidden;" parent="42" vertex="1">
                    <mxGeometry x="180" width="90" height="77" as="geometry">
                        <mxRectangle width="90" height="77" as="alternateBounds"/>
                    </mxGeometry>
                </mxCell>
                <mxCell id="46" value="89" style="shape=partialRectangle;html=1;whiteSpace=wrap;connectable=0;fillColor=none;top=0;left=0;bottom=0;right=0;overflow=hidden;" parent="42" vertex="1">
                    <mxGeometry x="270" width="90" height="77" as="geometry">
                        <mxRectangle width="90" height="77" as="alternateBounds"/>
                    </mxGeometry>
                </mxCell>
                <mxCell id="47" value="23" style="shape=partialRectangle;html=1;whiteSpace=wrap;connectable=0;fillColor=none;top=0;left=0;bottom=0;right=0;overflow=hidden;" parent="42" vertex="1">
                    <mxGeometry x="360" width="90" height="77" as="geometry">
                        <mxRectangle width="90" height="77" as="alternateBounds"/>
                    </mxGeometry>
                </mxCell>
                <mxCell id="48" value="66" style="shape=partialRectangle;html=1;whiteSpace=wrap;connectable=0;fillColor=none;top=0;left=0;bottom=0;right=0;overflow=hidden;" parent="42" vertex="1">
                    <mxGeometry x="450" width="90" height="77" as="geometry">
                        <mxRectangle width="90" height="77" as="alternateBounds"/>
                    </mxGeometry>
                </mxCell>
                <mxCell id="68" value="3" style="shape=partialRectangle;html=1;whiteSpace=wrap;connectable=0;fillColor=none;top=0;left=0;bottom=0;right=0;overflow=hidden;" parent="42" vertex="1">
                    <mxGeometry x="540" width="90" height="77" as="geometry">
                        <mxRectangle width="90" height="77" as="alternateBounds"/>
                    </mxGeometry>
                </mxCell>
                <mxCell id="76" value="7" style="shape=partialRectangle;html=1;whiteSpace=wrap;connectable=0;fillColor=none;top=0;left=0;bottom=0;right=0;overflow=hidden;" parent="42" vertex="1">
                    <mxGeometry x="630" width="90" height="77" as="geometry">
                        <mxRectangle width="90" height="77" as="alternateBounds"/>
                    </mxGeometry>
                </mxCell>
                <mxCell id="84" value="10" style="shape=partialRectangle;html=1;whiteSpace=wrap;connectable=0;fillColor=none;top=0;left=0;bottom=0;right=0;overflow=hidden;" parent="42" vertex="1">
                    <mxGeometry x="720" width="90" height="77" as="geometry">
                        <mxRectangle width="90" height="77" as="alternateBounds"/>
                    </mxGeometry>
                </mxCell>
                <mxCell id="92" value="45" style="shape=partialRectangle;html=1;whiteSpace=wrap;connectable=0;fillColor=none;top=0;left=0;bottom=0;right=0;overflow=hidden;" parent="42" vertex="1">
                    <mxGeometry x="810" width="90" height="77" as="geometry">
                        <mxRectangle width="90" height="77" as="alternateBounds"/>
                    </mxGeometry>
                </mxCell>
                <mxCell id="49" style="shape=tableRow;horizontal=0;startSize=0;swimlaneHead=0;swimlaneBody=0;top=0;left=0;bottom=0;right=0;collapsible=0;dropTarget=0;fillColor=none;points=[[0,0.5],[1,0.5]];portConstraint=eastwest;" parent="4" vertex="1">
                    <mxGeometry y="782" width="900" height="77" as="geometry"/>
                </mxCell>
                <mxCell id="50" value="U.P." style="shape=partialRectangle;html=1;whiteSpace=wrap;connectable=0;fillColor=none;top=0;left=0;bottom=0;right=0;overflow=hidden;" parent="49" vertex="1">
                    <mxGeometry width="90" height="77" as="geometry">
                        <mxRectangle width="90" height="77" as="alternateBounds"/>
                    </mxGeometry>
                </mxCell>
                <mxCell id="51" value="16" style="shape=partialRectangle;html=1;whiteSpace=wrap;connectable=0;fillColor=none;top=0;left=0;bottom=0;right=0;overflow=hidden;" parent="49" vertex="1">
                    <mxGeometry x="90" width="90" height="77" as="geometry">
                        <mxRectangle width="90" height="77" as="alternateBounds"/>
                    </mxGeometry>
                </mxCell>
                <mxCell id="52" value="47" style="shape=partialRectangle;html=1;whiteSpace=wrap;connectable=0;fillColor=none;top=0;left=0;bottom=0;right=0;overflow=hidden;" parent="49" vertex="1">
                    <mxGeometry x="180" width="90" height="77" as="geometry">
                        <mxRectangle width="90" height="77" as="alternateBounds"/>
                    </mxGeometry>
                </mxCell>
                <mxCell id="53" value="77" style="shape=partialRectangle;html=1;whiteSpace=wrap;connectable=0;fillColor=none;top=0;left=0;bottom=0;right=0;overflow=hidden;" parent="49" vertex="1">
                    <mxGeometry x="270" width="90" height="77" as="geometry">
                        <mxRectangle width="90" height="77" as="alternateBounds"/>
                    </mxGeometry>
                </mxCell>
                <mxCell id="54" value="45" style="shape=partialRectangle;html=1;whiteSpace=wrap;connectable=0;fillColor=none;top=0;left=0;bottom=0;right=0;overflow=hidden;" parent="49" vertex="1">
                    <mxGeometry x="360" width="90" height="77" as="geometry">
                        <mxRectangle width="90" height="77" as="alternateBounds"/>
                    </mxGeometry>
                </mxCell>
                <mxCell id="55" value="53" style="shape=partialRectangle;html=1;whiteSpace=wrap;connectable=0;fillColor=none;top=0;left=0;bottom=0;right=0;overflow=hidden;" parent="49" vertex="1">
                    <mxGeometry x="450" width="90" height="77" as="geometry">
                        <mxRectangle width="90" height="77" as="alternateBounds"/>
                    </mxGeometry>
                </mxCell>
                <mxCell id="69" value="2" style="shape=partialRectangle;html=1;whiteSpace=wrap;connectable=0;fillColor=none;top=0;left=0;bottom=0;right=0;overflow=hidden;" parent="49" vertex="1">
                    <mxGeometry x="540" width="90" height="77" as="geometry">
                        <mxRectangle width="90" height="77" as="alternateBounds"/>
                    </mxGeometry>
                </mxCell>
                <mxCell id="77" value="9" style="shape=partialRectangle;html=1;whiteSpace=wrap;connectable=0;fillColor=none;top=0;left=0;bottom=0;right=0;overflow=hidden;" parent="49" vertex="1">
                    <mxGeometry x="630" width="90" height="77" as="geometry">
                        <mxRectangle width="90" height="77" as="alternateBounds"/>
                    </mxGeometry>
                </mxCell>
                <mxCell id="85" value="21" style="shape=partialRectangle;html=1;whiteSpace=wrap;connectable=0;fillColor=none;top=0;left=0;bottom=0;right=0;overflow=hidden;" parent="49" vertex="1">
                    <mxGeometry x="720" width="90" height="77" as="geometry">
                        <mxRectangle width="90" height="77" as="alternateBounds"/>
                    </mxGeometry>
                </mxCell>
                <mxCell id="93" value="20" style="shape=partialRectangle;html=1;whiteSpace=wrap;connectable=0;fillColor=none;top=0;left=0;bottom=0;right=0;overflow=hidden;" parent="49" vertex="1">
                    <mxGeometry x="810" width="90" height="77" as="geometry">
                        <mxRectangle width="90" height="77" as="alternateBounds"/>
                    </mxGeometry>
                </mxCell>
                <mxCell id="56" style="shape=tableRow;horizontal=0;startSize=0;swimlaneHead=0;swimlaneBody=0;top=0;left=0;bottom=0;right=0;collapsible=0;dropTarget=0;fillColor=none;points=[[0,0.5],[1,0.5]];portConstraint=eastwest;" parent="4" vertex="1">
                    <mxGeometry y="859" width="900" height="77" as="geometry"/>
                </mxCell>
                <mxCell id="57" value="Gujrat" style="shape=partialRectangle;html=1;whiteSpace=wrap;connectable=0;fillColor=none;top=0;left=0;bottom=0;right=0;overflow=hidden;" parent="56" vertex="1">
                    <mxGeometry width="90" height="77" as="geometry">
                        <mxRectangle width="90" height="77" as="alternateBounds"/>
                    </mxGeometry>
                </mxCell>
                <mxCell id="58" value="71" style="shape=partialRectangle;html=1;whiteSpace=wrap;connectable=0;fillColor=none;top=0;left=0;bottom=0;right=0;overflow=hidden;" parent="56" vertex="1">
                    <mxGeometry x="90" width="90" height="77" as="geometry">
                        <mxRectangle width="90" height="77" as="alternateBounds"/>
                    </mxGeometry>
                </mxCell>
                <mxCell id="59" value="94" style="shape=partialRectangle;html=1;whiteSpace=wrap;connectable=0;fillColor=none;top=0;left=0;bottom=0;right=0;overflow=hidden;" parent="56" vertex="1">
                    <mxGeometry x="180" width="90" height="77" as="geometry">
                        <mxRectangle width="90" height="77" as="alternateBounds"/>
                    </mxGeometry>
                </mxCell>
                <mxCell id="60" value="15" style="shape=partialRectangle;html=1;whiteSpace=wrap;connectable=0;fillColor=none;top=0;left=0;bottom=0;right=0;overflow=hidden;" parent="56" vertex="1">
                    <mxGeometry x="270" width="90" height="77" as="geometry">
                        <mxRectangle width="90" height="77" as="alternateBounds"/>
                    </mxGeometry>
                </mxCell>
                <mxCell id="61" value="40" style="shape=partialRectangle;html=1;whiteSpace=wrap;connectable=0;fillColor=none;top=0;left=0;bottom=0;right=0;overflow=hidden;" parent="56" vertex="1">
                    <mxGeometry x="360" width="90" height="77" as="geometry">
                        <mxRectangle width="90" height="77" as="alternateBounds"/>
                    </mxGeometry>
                </mxCell>
                <mxCell id="62" value="4" style="shape=partialRectangle;html=1;whiteSpace=wrap;connectable=0;fillColor=none;top=0;left=0;bottom=0;right=0;overflow=hidden;" parent="56" vertex="1">
                    <mxGeometry x="450" width="90" height="77" as="geometry">
                        <mxRectangle width="90" height="77" as="alternateBounds"/>
                    </mxGeometry>
                </mxCell>
                <mxCell id="70" value="5" style="shape=partialRectangle;html=1;whiteSpace=wrap;connectable=0;fillColor=none;top=0;left=0;bottom=0;right=0;overflow=hidden;" parent="56" vertex="1">
                    <mxGeometry x="540" width="90" height="77" as="geometry">
                        <mxRectangle width="90" height="77" as="alternateBounds"/>
                    </mxGeometry>
                </mxCell>
                <mxCell id="78" value="4" style="shape=partialRectangle;html=1;whiteSpace=wrap;connectable=0;fillColor=none;top=0;left=0;bottom=0;right=0;overflow=hidden;" parent="56" vertex="1">
                    <mxGeometry x="630" width="90" height="77" as="geometry">
                        <mxRectangle width="90" height="77" as="alternateBounds"/>
                    </mxGeometry>
                </mxCell>
                <mxCell id="86" value="19" style="shape=partialRectangle;html=1;whiteSpace=wrap;connectable=0;fillColor=none;top=0;left=0;bottom=0;right=0;overflow=hidden;" parent="56" vertex="1">
                    <mxGeometry x="720" width="90" height="77" as="geometry">
                        <mxRectangle width="90" height="77" as="alternateBounds"/>
                    </mxGeometry>
                </mxCell>
                <mxCell id="94" value="22" style="shape=partialRectangle;html=1;whiteSpace=wrap;connectable=0;fillColor=none;top=0;left=0;bottom=0;right=0;overflow=hidden;" parent="56" vertex="1">
                    <mxGeometry x="810" width="90" height="77" as="geometry">
                        <mxRectangle width="90" height="77" as="alternateBounds"/>
                    </mxGeometry>
                </mxCell>
            </root>
        </mxGraphModel>
    </diagram>
</mxfile>